<svg width="20" height="20" viewBox="0 0 20 20" fill="none" xmlns="http://www.w3.org/2000/svg">
<mask id="mask0_641_4230" style="mask-type:alpha" maskUnits="userSpaceOnUse" x="2" y="1" width="16" height="18">
<path fill-rule="evenodd" clip-rule="evenodd" d="M10.5667 5.52397C11.15 5.32397 11.5833 4.77397 11.65 4.15731C11.6917 3.76564 11.6083 3.39897 11.4167 3.09897L10.35 1.24897C10.1917 0.973975 9.79167 0.973975 9.625 1.24897L8.55833 3.09897C8.41667 3.34897 8.33333 3.64064 8.33333 3.95731C8.33333 5.05731 9.41667 5.91564 10.5667 5.52397ZM13.775 13.8906L12.9417 13.0573L12.0417 13.949C10.9583 15.0323 9.05833 15.0406 7.96667 13.949L7.075 13.0573L6.16667 13.949C5.625 14.4906 4.9 14.7906 4.13333 14.7906C3.525 14.7906 2.96667 14.599 2.5 14.2823V17.2906C2.5 18.2073 3.25 18.9573 4.16667 18.9573H15.8333C16.75 18.9573 17.5 18.2073 17.5 17.2906V14.2823C16.875 14.7073 16.075 14.9073 15.2167 14.7156C14.6667 14.599 14.175 14.2906 13.775 13.8906ZM10.8333 8.12397H15C16.3833 8.12397 17.5 9.24064 17.4917 10.6323V11.8156C17.4917 12.649 16.9083 13.424 16.0833 13.5323C15.5667 13.599 15.0667 13.4323 14.7083 13.074L12.9333 11.299L11.15 13.074C10.5167 13.7073 9.475 13.7073 8.84167 13.074L7.06667 11.299L5.28333 13.074C4.85833 13.5073 4.2 13.6573 3.59167 13.4573C2.91667 13.2323 2.5 12.549 2.5 11.8406V10.624C2.5 9.24064 3.61667 8.12397 5 8.12397H9.16667V7.29064C9.16667 6.83231 9.54167 6.45731 10 6.45731C10.4583 6.45731 10.8333 6.83231 10.8333 7.29064V8.12397Z" fill="black"/>
</mask>
<g mask="url(#mask0_641_4230)">
<rect width="20" height="20" fill="#db8f8f"/>
</g>
</svg>
