<svg width="11" height="11" viewBox="0 0 11 11" fill="none" xmlns="http://www.w3.org/2000/svg">
<path d="M2.00003 1.5H3.00003M2.50003 1V2M5.75003 1L5.50003 2M9.00003 1.5H10M9.50003 1V2M7.50003 3.5L7.00003 4M9.00003 5.5L10 5.25M9.00003 8.5H10M9.50003 8V9M7.00002 7.259L3.74102 4L1.54602 8.79C1.50264 8.883 1.48892 8.9871 1.50674 9.08817C1.52455 9.18923 1.57303 9.28237 1.64559 9.35493C1.71816 9.4275 1.81129 9.47598 1.91236 9.49379C2.01342 9.5116 2.11752 9.49788 2.21052 9.4545L7.00002 7.259Z" stroke="#F4BFBF" stroke-width="2" stroke-linecap="round" stroke-linejoin="round"/>
</svg>
