<svg width="12" height="12" viewBox="0 0 12 12" fill="none" xmlns="http://www.w3.org/2000/svg">
<path d="M6.79 6.89499C6.925 7.23499 7 7.60999 7 7.99999C7 8.88499 6.615 9.68499 6 10.23M6 10.23C5.45266 10.727 4.73935 11.0017 4 11C2.345 11 1 9.65499 1 7.99999C1 6.62 1.94 5.45 3.21 5.105M6 10.23C6.54734 10.727 7.26065 11.0017 8 11C9.655 11 11 9.65499 11 7.99999C11 6.62 10.06 5.45 8.79 5.105M3 4C3 4.79565 3.31607 5.55871 3.87868 6.12132C4.44129 6.68393 5.20435 7 6 7C6.79565 7 7.55871 6.68393 8.12132 6.12132C8.68393 5.55871 9 4.79565 9 4C9 3.20435 8.68393 2.44129 8.12132 1.87868C7.55871 1.31607 6.79565 1 6 1C5.20435 1 4.44129 1.31607 3.87868 1.87868C3.31607 2.44129 3 3.20435 3 4Z" stroke="#F4BFBF" stroke-width="2" stroke-linecap="round" stroke-linejoin="round"/>
</svg>
