<svg width="12" height="12" viewBox="0 0 12 12" fill="none" xmlns="http://www.w3.org/2000/svg">
<path d="M6 1.9375C5.32875 1.57125 4.38563 1 3.5 1C2.1875 1 1 1.77937 1 4.125C1 7.18688 1.66 9.38125 2.66938 10.7106C3.0275 11.1831 3.90062 11.0363 4.27375 10.5631C4.5225 10.2475 4.78563 9.66375 5.0625 8.8125C5.245 8.33062 5.62 7.8725 6 7.875C6.37625 7.875 6.75625 8.33562 6.9375 8.8125C7.21437 9.66375 7.4775 10.2469 7.72625 10.5625C8.09938 11.0369 8.97625 11.1831 9.33063 10.7106C10.34 9.38125 11 7.1875 11 4.125C11 1.7875 9.8075 1 8.5 1C7.61063 1 6.675 1.56938 6 1.9375ZM6 1.9375L7.875 2.875" stroke="#F4BFBF" stroke-width="2" stroke-linecap="round" stroke-linejoin="round"/>
</svg>
